<svg xmlns="http://www.w3.org/2000/svg" width="24" height="24"><path fill-rule="evenodd" d="M4 12a.5479.5479 0 0 1 .1674-.3928.5797.5797 0 0 1 .404-.1627h13.4768l-3.5963-3.495a.5485.5485 0 0 1-.1676-.3933c0-.1475.0603-.289.1676-.3933A.5806.5806 0 0 1 14.8565 7a.5805.5805 0 0 1 .4045.1629l4.5711 4.4438a.555.555 0 0 1 .1243.1804.542.542 0 0 1 0 .4258.555.555 0 0 1-.1243.1804l-4.5711 4.4438a.5805.5805 0 0 1-.4045.1629.5806.5806 0 0 1-.4046-.1629.5485.5485 0 0 1-.1676-.3933c0-.1475.0603-.289.1676-.3933l3.5963-3.495H4.5714a.5797.5797 0 0 1-.404-.1627A.5479.5479 0 0 1 4 12Z" clip-rule="evenodd"/></svg>