<svg xmlns="http://www.w3.org/2000/svg" width="24" height="24"><path d="M19.53 6.92h-3.95v-1.5c0-.86-.66-1.42-1.5-1.42H10.3c-.47 0-.85.1-1.13.38-.29.28-.47.56-.47 1.03v1.41H4.47c-.28 0-.47.2-.47.47 0 .29.19.57.47.57h1.98v9.98c0 .56.19 1.12.56 1.5a2 2 0 0 0 1.41.66h7.44a2 2 0 0 0 1.41-.66c.38-.38.57-.94.57-1.5V7.86h1.69c.28 0 .47-.19.47-.47 0-.28-.19-.47-.47-.47ZM9.65 5.5c0-.2.1-.38.19-.47.09-.1.18-.1.37-.1h3.86c.28 0 .57.19.57.47v1.41h-5V5.51Zm7.15 12.33c0 .28-.1.65-.28.84-.2.2-.47.38-.66.38H8.42c-.28 0-.47-.1-.66-.38-.18-.19-.28-.56-.28-.84V7.86h9.41v9.98h-.09Z"/></svg>