<svg xmlns="http://www.w3.org/2000/svg" width="24" height="24"><path d="M12.6354 14.092a2.1834 2.1834 0 0 1-1.4709-.0742 2.1838 2.1838 0 1 1 2.3802-3.5619 2.1832 2.1832 0 0 1-.9093 3.6361Z"/><path fill-rule="evenodd" d="M12.0005 6.634c1.7477 0 1.9547.0065 2.645.038.6385.0292.9848.1357 1.2157.2255.2842.1049.5414.272.7527.4891.2291.2291.3701.4475.4891.7528.0899.2309.1964.5772.2255 1.2156.0316.6903.0381.8974.0381 2.645s-.0065 1.9547-.0381 2.645c-.0291.6384-.1356.9848-.2255 1.2156a2.0315 2.0315 0 0 1-.4891.7528c-.2291.229-.4475.3701-.7527.4891-.2309.0898-.5772.1963-1.2157.2255-.6903.0315-.8967.0381-2.645.0381-1.7482 0-1.9547-.0066-2.645-.0381-.6384-.0292-.9847-.1357-1.2156-.2255a2.0325 2.0325 0 0 1-.7527-.4891 2.0321 2.0321 0 0 1-.4892-.7528c-.0898-.2308-.1963-.5772-.2255-1.2156-.0315-.6903-.038-.8974-.038-2.645s.0065-1.9547.038-2.645c.0292-.6384.1357-.9848.2255-1.2156a2.0303 2.0303 0 0 1 .4892-.7528c.229-.229.4474-.37.7527-.489.2309-.09.5772-.1964 1.2157-.2256.6902-.0315.8973-.038 2.6449-.038ZM10.713 8.8916A3.365 3.365 0 0 0 8.6362 12a3.3645 3.3645 0 1 0 2.0768-3.1083Zm5.5803-.0133a.7957.7957 0 0 1-1.5236-.3089.7954.7954 0 0 1 1.0945-.7488.7944.7944 0 0 1 .4382.4382.7948.7948 0 0 1-.0091.6195Z" clip-rule="evenodd"/><path fill-rule="evenodd" d="M12 24c6.6274 0 12-5.3726 12-12S18.6274 0 12 0 0 5.3726 0 12s5.3726 12 12 12Zm.0005-18.5455c-1.778 0-2.0005.0072-2.6985.0393-.6962.0321-1.1728.1428-1.5893.304a3.2086 3.2086 0 0 0-1.1586.7552 3.2108 3.2108 0 0 0-.7557 1.1591c-.1612.4166-.2725.8926-.304 1.59-.0316.6974-.0393.9199-.0393 2.6979 0 1.7774.0071 1.9999.0393 2.6991.032.6962.1428 1.1722.304 1.5888.1644.4367.4221.8322.7551 1.1591.3272.3328.723.5903 1.1598.7545.4165.1619.8925.2731 1.5887.3047.698.0315.9205.0393 2.6985.0393s2.0006-.0072 2.6991-.0393c.6962-.0322 1.1723-.1428 1.5888-.3047a3.2082 3.2082 0 0 0 1.1591-.7545 3.2114 3.2114 0 0 0 .7546-1.1597c.1618-.4166.2731-.8926.3046-1.5888.0316-.698.0393-.9205.0393-2.6985 0-1.7774-.0072-1.9999-.0393-2.6991-.0321-.6962-.1428-1.1722-.3046-1.5888a3.1971 3.1971 0 0 0-.7546-1.1585 3.2191 3.2191 0 0 0-1.1591-.7557c-.4165-.1613-.8926-.2725-1.5899-.304-.6974-.0316-.92-.0394-2.698-.0394Z" clip-rule="evenodd"/></svg>