<svg xmlns="http://www.w3.org/2000/svg" width="73" height="16"><path d="M.89911.8956v.78742H7.5465v.90314H.89912v1.68302H0V0h7.5465v.8956H.89912ZM14.4769 2.5862a1.26676 1.26676 0 0 0 .5051-.10314 1.30339 1.30339 0 0 0 .4092-.27673c.2425-.24461.3786-.57447.3788-.91824a1.21397 1.21397 0 0 0-.1035-.50314 1.29424 1.29424 0 0 0-.2753-.40755 1.34854 1.34854 0 0 0-.4092-.27673 1.26694 1.26694 0 0 0-.5051-.10063H8.21595v4.27672h.89911V2.5862h4.13444l1.5633 1.68302h1.2275L14.4769 2.5862ZM9.11506.9057h5.35174a.35715.35715 0 0 1 .149.03019.41966.41966 0 0 1 .1263.08805.42243.42243 0 0 1 .0909.1283.37246.37246 0 0 1 .0302.14717.3725.3725 0 0 1-.0302.14717.42946.42946 0 0 1-.0884.1283.37866.37866 0 0 1-.1288.08805.3572.3572 0 0 1-.149.03019H9.11506V.9057ZM23.7937 1.30066a2.18994 2.18994 0 0 0-.4546-.67421 2.15942 2.15942 0 0 0-.6794-.46038 2.1287 2.1287 0 0 0-.836-.16604h-3.2555a2.11092 2.11092 0 0 0-.8309.16604 2.2184 2.2184 0 0 0-.6668.46038 2.15313 2.15313 0 0 0-.4571.67421 2.09203 2.09203 0 0 0-.1692.82767v2.14088h.8789v-1.2327h5.7306v1.2327h.8991V2.12833a2.07274 2.07274 0 0 0-.1591-.82767ZM18.5682.90569h3.2555c.1652-.0018.3288.03166.4799.09811.2993.12361.5379.35942.6642.65661.0638.14957.0964.31046.096.47295l-5.7407.00503a1.19865 1.19865 0 0 1 .1061-.47798 1.29498 1.29498 0 0 1 .2702-.39497 1.27641 1.27641 0 0 1 .3965-.26667 1.16106 1.16106 0 0 1 .4723-.09308ZM32.0802 0v4.28679h-.8966v-2.6717l-2.8261 2.18868-2.8262-2.18868v2.6717h-.8941V0l3.7203 2.66918L32.0802 0ZM33.8153 1.52706a1.26994 1.26994 0 0 0-.0758.15597h6.5666v.90314h-6.5666c.0217.05367.047.10578.0758.15598.0734.12464.1663.23676.2753.33207.1093.09428.234.16916.3687.22139.1382.05147.2844.07788.4319.07799h5.4149v.89559h-5.4149a2.09035 2.09035 0 0 1-.8334-.16855 2.14957 2.14957 0 0 1-.6819-.45786 2.16501 2.16501 0 0 1-.4572-.67673 2.12908 2.12908 0 0 1-.1691-.83145c0-.28562.0575-.56835.1691-.83144a2.16485 2.16485 0 0 1 .4572-.67673 2.1991 2.1991 0 0 1 .6819-.46038 2.13331 2.13331 0 0 1 .8334-.16603h5.4149v.90565h-5.4149a1.23966 1.23966 0 0 0-.4319.078 1.26412 1.26412 0 0 0-.3687.22138 1.35103 1.35103 0 0 0-.2753.32201ZM48.6634 0l-2.0836 4.28679-1.8235-3.08428-1.8235 3.08428L40.8517 0h.9976l1.1517 2.52075L44.3876 0h.745l1.3765 2.52075L47.6683 0h.9951ZM55.9345 1.30317a2.2162 2.2162 0 0 0-.4597-.67672 2.1703 2.1703 0 0 0-.6819-.46038 2.11604 2.11604 0 0 0-.8335-.16604h-3.2605a2.13637 2.13637 0 0 0-.836.16604 2.2003 2.2003 0 0 0-.6819.46038 2.16464 2.16464 0 0 0-.4571.67672 2.12738 2.12738 0 0 0 0 1.66289c.1079.25238.2631.48203.4571.67673.1956.19492.4271.35039.6819.45786.264.11294.5486.17032.836.16856h3.2605c.2866.002.5704-.0554.8335-.16856a2.12238 2.12238 0 0 0 .6819-.45786 2.21607 2.21607 0 0 0 .4597-.67673 2.15992 2.15992 0 0 0 .1665-.83144c0-.28537-.0566-.56793-.1665-.83145Zm-1.9751 2.07044h-3.2605a1.16837 1.16837 0 0 1-.4799-.09811 1.2753 1.2753 0 0 1-.3965-.26667 1.29486 1.29486 0 0 1-.2702-.39497 1.20425 1.20425 0 0 1-.096-.47798 1.21657 1.21657 0 0 1 .096-.4805 1.29486 1.29486 0 0 1 .2702-.39497 1.27529 1.27529 0 0 1 .3965-.26667 1.1683 1.1683 0 0 1 .4799-.09811h3.2605a1.17868 1.17868 0 0 1 .4799.09811c.1479.06318.2824.15366.3965.26667.1128.11607.2036.25161.2677.4.0663.15152.0998.31523.0985.4805a1.1653 1.1653 0 0 1-.0985.47799 1.33343 1.33343 0 0 1-.2677.39496 1.27502 1.27502 0 0 1-.3864.26164 1.17867 1.17867 0 0 1-.49.09811ZM63.0365 2.5862a1.26676 1.26676 0 0 0 .5051-.10314 1.30339 1.30339 0 0 0 .4092-.27673 1.31984 1.31984 0 0 0 .2753-.41007 1.2206 1.2206 0 0 0 .1035-.50314 1.25329 1.25329 0 0 0-.1035-.50314c-.13-.30935-.3754-.55643-.6845-.68931a1.26694 1.26694 0 0 0-.5051-.10063H56.773v4.27672h.8991V2.5862h4.1345l1.5633 1.68302h1.2275L63.0365 2.5862ZM57.6721.9057h5.3644a.35459.35459 0 0 1 .1465.03019.43122.43122 0 0 1 .1288.08805.41562.41562 0 0 1 .0884.1283.35378.35378 0 0 1 .0328.14591.39824.39824 0 0 1-.0303.14843.4813.4813 0 0 1-.0884.1283.38807.38807 0 0 1-.1313.08805.35462.35462 0 0 1-.1465.03019h-5.3644V.9057ZM69.0803 2.13585 73 4.26918h-1.8588l-3.1015-1.69057h-2.1619v1.69057h-.889V0h.889v1.69056h2.1619L71.1412 0H73l-3.9197 2.13585ZM16.2068 7.15206v1.46415H8.83709v7.37609h-1.4699V8.61621H0V7.15206h16.2068ZM20.7074 10.1106a2.83466 2.83466 0 0 0-.3005.7295H34.876v1.4617H20.4069c.0647.2562.1659.5019.3005.7295.3429.6041.8856 1.0709 1.5356 1.3208.3333.1254.6867.1893 1.0431.1887H34.876v1.4591H23.2861a4.3409 4.3409 0 0 1-1.725-.3497 4.42788 4.42788 0 0 1-1.4118-.9459 4.45686 4.45686 0 0 1-.9522-1.4063 4.41732 4.41732 0 0 1-.3485-1.7195c0-.5906.1185-1.1752.3485-1.71949.4509-1.06046 1.2989-1.9042 2.364-2.3522a4.33813 4.33813 0 0 1 1.725-.34717H34.876v1.44403H23.2861a2.8941 2.8941 0 0 0-1.0431.18867 3.01099 3.01099 0 0 0-.884.52831 3.13273 3.13273 0 0 0-.6516.78995ZM53.6741 9.84655a4.50217 4.50217 0 0 0-.9445-1.39371 4.4292 4.4292 0 0 0-1.4043-.94842 4.35864 4.35864 0 0 0-1.7275-.34717h-7.1272a4.30822 4.30822 0 0 0-1.72.34717c-1.0607.4493-1.9053 1.2906-2.3564 2.34716a4.26154 4.26154 0 0 0-.346 1.71322V16h1.4548v-2.7119h13.0624V16h1.4598v-4.4402a4.26226 4.26226 0 0 0-.3511-1.71325ZM42.4706 8.60378h7.1272a2.9063 2.9063 0 0 1 1.1567.23397c.354.15149.6755.36927.9471.64151.2712.26919.4866.58884.634.94084.1542.3602.2324.7481.2298 1.1397v.2767H39.503v-.2767a2.85894 2.85894 0 0 1 .2348-1.1397c.3079-.70625.8715-1.27118 1.5785-1.58235a2.88934 2.88934 0 0 1 1.1543-.23397ZM72.9874 7.15236v8.84024h-1.4446V9.87186l-6.4529 4.98864-6.4403-4.98613v6.11823h-1.4472V7.15236l7.8875 5.87674 7.8975-5.87674Z"/></svg>