<svg xmlns="http://www.w3.org/2000/svg" width="24" height="24"><path d="M12 0C5.3725 0 0 5.3725 0 12s5.3725 12 12 12 12-5.3725 12-12S18.6275 0 12 0Zm4.615 13.5388s1.0613 1.0475 1.3225 1.5337c.0075.01.0112.02.0138.025.1062.1787.1312.3175.0787.4213-.0875.1724-.3875.2575-.49.265h-1.875c-.13 0-.4025-.0338-.7325-.2613-.2537-.1775-.5037-.4687-.7475-.7525-.3637-.4225-.6787-.7875-.9962-.7875a.38.38 0 0 0-.1188.0188c-.24.0775-.5475.42-.5475 1.3324 0 .2851-.225.4488-.3837.4488H11.28c-.2925 0-1.8163-.1025-3.1662-1.5262-1.6525-1.7438-3.14-5.2413-3.1525-5.2738-.0938-.2263.1-.3475.3112-.3475h1.8937c.2526 0 .335.1538.3925.29.0675.1587.315.79.7213 1.5.6588 1.1575 1.0625 1.6275 1.3863 1.6275a.3753.3753 0 0 0 .1737-.045c.4225-.235.3438-1.7413.325-2.0538 0-.0587-.0013-.6737-.2175-.9687-.155-.2137-.4187-.295-.5787-.325a.6875.6875 0 0 1 .2487-.2112c.29-.145.8125-.1663 1.3313-.1663h.2887c.5625.0075.7075.0437.9113.095.4125.0988.4212.365.385 1.2763-.0113.2587-.0225.5512-.0225.8962 0 .075-.0038.155-.0038.24-.0125.4637-.0275.99.3 1.2063a.271.271 0 0 0 .1425.0412c.1138 0 .4562 0 1.3837-1.5912a12.1393 12.1393 0 0 0 .7438-1.5926c.0188-.0325.0738-.1325.1388-.1712a.3321.3321 0 0 1 .155-.0362h2.2262c.2425 0 .4088.0362.44.13.055.1487-.01.6024-1.0263 1.9787l-.4537.5988c-.9212 1.2075-.9212 1.2687.0575 2.185Z"/></svg>